#!OML:ASF F:\VICON\USERDATA\INSTALL\rory3\rory3.ASF
:FULLY-SPECIFIED
:DEGREES
314
root 11.1728 17.8668 -3.01534 -371.01 79.5835 -368.534
lowerback 12.0341 0.592706 -3.73419
upperback 0.909846 0.351542 0.478733
thorax -5.82343 0.289409 2.55189
lowerneck -12.1788 -9.3548 -13.0734
upperneck 33.2373 -14.1681 13.5676
head 15.8805 -5.71868 5.61893
rclavicle -1.1778e-014 -1.31198e-014
rhumerus -44.2106 -19.4717 -75.177
rradius 36.1143
rwrist 8.42391
rhand -15.5846 9.57259
rfingers 7.12502
rthumb 10.6009 -20.14
lclavicle -1.1778e-014 -1.31198e-014
lhumerus -30.0837 7.50046 81.0484
lradius 26.0469
lwrist -7.73296
lhand -17.7962 26.2269
lfingers 7.12502
lthumb 8.46704 56.0371
rfemur -12.1133 -4.76886 13.7906
rtibia 38.4211
rfoot -15.6418 -13.3448
rtoes 15.2767
lfemur -8.27957 -1.87406 -17.8924
ltibia 27.6195
lfoot -13.0707 -3.48872
ltoes -7.97881
315
root 11.1627 17.8792 -2.96744 -370.864 79.0419 -368.762
lowerback 11.6832 0.55346 -3.607
upperback 0.791836 0.327068 0.528713
thorax -5.74989 0.27328 2.53704
lowerneck -12.2871 -9.30687 -13.0835
upperneck 33.2903 -14.0685 13.4851
head 15.9038 -5.68598 5.60299
rclavicle -1.65737e-014 3.18055e-015
rhumerus -44.2072 -19.3497 -75.2656
rradius 36.2793
rwrist 8.12104
rhand -16.0806 9.62263
rfingers 7.12502
rthumb 10.1224 -20.1139
lclavicle -1.65737e-014 3.18055e-015
lhumerus -30.2119 7.15785 81.2032
lradius 26.1544
lwrist -7.77196
lhand -17.9083 26.204
lfingers 7.12502
lthumb 8.35887 56.0186
rfemur -12.3091 -4.61255 13.3525
rtibia 37.6814
rfoot -14.8557 -13.6232
rtoes 16.0259
lfemur -8.48505 -1.73229 -17.5652
ltibia 27.3816
lfoot -12.8768 -3.07485
ltoes -8.69328
316
root 11.1548 17.8928 -2.90945 -370.637 78.5493 -368.658
lowerback 11.5383 0.57284 -3.62855
upperback 0.736782 0.354065 0.549
thorax -5.72928 0.28695 2.5663
lowerneck -12.2663 -9.33955 -13.1373
upperneck 33.2512 -14.1355 13.5531
head 15.9064 -5.71729 5.62699
rclavicle 1.89094e-014 -5.1684e-015
rhumerus -44.1892 -19.13 -75.418
rradius 36.3936
rwrist 7.79418
rhand -16.6447 9.46819
rfingers 7.12502
rthumb 9.57814 -20.2941
lclavicle 1.89094e-014 -5.1684e-015
lhumerus -30.3471 6.31891 81.4847
lradius 26.3347
lwrist -7.09885
lhand -18.6498 26.4015
lfingers 7.12502
lthumb 7.6432 56.2434
rfemur -12.2135 -4.4522 12.8508
rtibia 36.9695
rfoot -13.9088 -13.9646
rtoes 17.2207
lfemur -8.37375 -1.78757 -17.3133
ltibia 27.0793
lfoot -12.6218 -2.59476
ltoes -8.92553
317
root 11.1504 17.9046 -2.86331 -370.748 78.1348 -368.716
lowerback 11.5723 0.587136 -3.39069
upperback 0.70244 0.397048 0.474154
thorax -5.78534 0.302183 2.34586
lowerneck -12.1007 -9.4001 -13.072
upperneck 33.1597 -14.3081 13.6982
head 15.8664 -5.77357 5.64496
rclavicle 1.48095e-014 -1.98785e-015
rhumerus -44.2642 -19.1209 -75.4963
rradius 36.5171
rwrist 7.55807
rhand -16.8574 9.10213
rfingers 7.12502
rthumb 9.37291 -20.6695
lclavicle 1.48095e-014 -1.98785e-015
lhumerus -30.4809 5.39115 81.7803
lradius 26.4239
lwrist -6.49085
lhand -20.2369 27.0566
lfingers 7.12502
lthumb 6.11108 56.9485
rfemur -11.9247 -4.50254 12.2979
rtibia 36.2957
rfoot -12.7973 -14.2661
rtoes 18.5198
lfemur -7.985 -2.03812 -17.0985
ltibia 26.68
lfoot -12.4331 -1.93578
ltoes -9.49717
318
root 11.1489 17.9151 -2.80952 -370.427 77.765 -368.375
lowerback 11.5074 0.554162 -3.4065
upperback 0.673454 0.353175 0.491239
thorax -5.77699 0.2811 2.3801
lowerneck -12.0456 -9.39738 -13.2307
upperneck 33.1542 -14.3299 13.8592
head 15.8912 -5.78825 5.74362
rclavicle 3.08116e-015 0
rhumerus -44.3465 -19.0521 -75.4983
rradius 36.6882
rwrist 7.57831
rhand -17.1218 8.46476
rfingers 7.12502
rthumb 9.11781 -21.3182
lclavicle 3.08116e-015 0
lhumerus -30.6046 5.11167 82.0156
lradius 26.3812
lwrist -6.68353
lhand -21.0494 27.3331
lfingers 7.12502
lthumb 5.32662 57.2461
rfemur -11.6938 -4.43411 11.7011
rtibia 35.665
rfoot -11.5496 -14.9032
rtoes 20.2372
lfemur -7.60721 -2.05493 -16.9471
ltibia 26.1831
lfoot -12.2339 -1.54133
ltoes -9.90822
319
root 11.1451 17.9276 -2.75183 -369.926 77.3042 -367.869
lowerback 11.4217 0.521202 -3.58503
upperback 0.651118 0.293839 0.586367
thorax -5.75023 0.257234 2.591
lowerneck -12.0935 -9.35512 -13.3666
upperneck 33.1894 -14.2307 13.8375
head 15.9112 -5.76735 5.77834
rclavicle -7.90169e-015 -3.97569e-016
rhumerus -44.3429 -18.7418 -75.5558
rradius 36.7783
rwrist 7.65372
rhand -17.743 7.78311
rfingers 7.12502
rthumb 8.51839 -22.0251
lclavicle -7.90169e-015 -3.97569e-016
lhumerus -30.7476 5.1912 82.1407
lradius 26.4056
lwrist -7.17878
lhand -20.7184 27.2294
lfingers 7.12502
lthumb 5.6462 57.1341
rfemur -11.5465 -4.53248 11.1333
rtibia 35.0925
rfoot -10.2798 -15.6407
rtoes 22.7389
lfemur -7.21479 -1.89623 -16.7907
ltibia 25.6306
lfoot -12.041 -1.23132
ltoes -10.3953
320
root 11.1389 17.9413 -2.69348 -369.427 76.8289 -367.363
lowerback 11.3135 0.489935 -3.73843
upperback 0.663866 0.239881 0.641056
thorax -5.6733 0.233523 2.74403
lowerneck -12.1856 -9.3714 -13.4477
upperneck 33.2009 -14.2335 13.8207
head 15.9461 -5.78112 5.78122
rclavicle 1.58779e-014 -2.78299e-015
rhumerus -44.1722 -18.3053 -75.7437
rradius 36.7565
rwrist 7.76176
rhand -18.3604 7.333
rfingers 7.12502
rthumb 7.92249 -22.4985
lclavicle 1.58779e-014 -2.78299e-015
lhumerus -30.8211 4.96006 82.3121
lradius 26.5033
lwrist -7.22184
lhand -20.4573 27.2999
lfingers 7.12502
lthumb 5.89833 57.1978
rfemur -11.4281 -4.75449 10.5979
rtibia 34.5831
rfoot -9.16737 -16.389
rtoes 25.3658
lfemur -6.7967 -1.96022 -16.6521
ltibia 25.0497
lfoot -11.7639 -0.759856
ltoes -10.4136
